<?xml version="1.0" standalone="no"?>
<!DOCTYPE svg PUBLIC "-//W3C//DTD SVG 20010904//EN" "http://www.w3.org/TR/2001/REC-SVG-20010904/DTD/svg10.dtd">
<svg version="1.0" xmlns="http://www.w3.org/2000/svg" width="512.000000pt" height="512.000000pt"
    viewBox="0 0 512.000000 512.000000" preserveAspectRatio="xMidYMid meet">

    <g transform="translate(0.000000,512.000000) scale(0.100000,-0.100000)" fill="#ffffff" stroke="none">
        <path d="M3882 4043 c-23 -45 -312 -833 -312 -851 0 -12 9 -26 19 -32 12 -6
117 -10 270 -10 l251 0 0 -965 0 -965 -70 0 c-70 0 -71 0 -76 -29 -5 -23 -12
-31 -33 -33 -23 -3 -26 -8 -29 -50 l-3 -48 296 0 296 0 -3 47 c-3 44 -5 48
-30 51 -21 3 -27 9 -30 30 -3 26 -5 27 -76 30 l-72 3 2 962 3 962 264 5 c250
5 264 6 277 25 11 18 -6 70 -144 440 -86 231 -161 426 -165 433 -6 9 -81 12
-317 12 -284 0 -310 -1 -318 -17z" />
        <path d="M1820 3054 c-368 -43 -580 -133 -668 -282 l-27 -47 -3 -334 c-3 -303
-2 -335 14 -352 25 -27 54 -24 157 20 190 80 288 103 517 121 229 19 505 -2
679 -51 41 -12 126 -41 188 -65 103 -41 116 -44 141 -32 l27 13 0 340 c0 314
-1 343 -19 378 -62 125 -260 227 -531 273 -86 15 -402 27 -475 18z" />
        <path d="M567 2590 c-71 -13 -151 -55 -192 -102 -59 -70 -79 -122 -83 -223 -7
-173 46 -314 163 -429 l70 -70 3 -333 3 -332 26 -21 c26 -20 31 -20 1430 -20
l1404 0 24 25 25 24 0 326 0 327 68 66 c117 115 178 276 170 448 -9 173 -112
287 -285 314 -134 21 -249 -15 -327 -101 -73 -81 -76 -98 -76 -456 0 -172 -2
-313 -4 -313 -3 0 -53 27 -112 60 -224 124 -470 185 -794 197 -398 14 -763
-71 -1018 -236 -34 -23 -64 -41 -67 -41 -2 0 -5 147 -7 328 l-3 327 -26 56
c-52 111 -146 173 -274 182 -38 3 -92 2 -118 -3z" />
    </g>
</svg>